<?xml version="1.0" encoding="iso-8859-1"?>
<!-- Generator: Adobe Illustrator 19.0.0, SVG Export Plug-In . SVG Version: 6.00 Build 0)  -->
<svg version="1.1" id="Capa_1" xmlns="http://www.w3.org/2000/svg" xmlns:xlink="http://www.w3.org/1999/xlink" x="0px" y="0px"
	 viewBox="0 0 511.734 511.734" style="enable-background:new 0 0 511.734 511.734;" xml:space="preserve">
<polygon style="fill:#E6E9ED;" points="447.767,475.753 87.954,475.753 63.967,507.736 431.775,507.736 "/>
<g style="opacity:0.2;">
	<polygon points="87.954,475.753 63.967,507.736 79.958,507.736 103.946,475.753 	"/>
</g>
<rect x="87.957" y="3.998" style="fill:#AC92EC;" width="359.81" height="471.75"/>
<path style="fill:#FFCE54;" d="M362.436,237.798c1.038,4.318-1.601,8.636-5.911,9.675c-4.248,1.039-8.558-1.601-9.604-5.919
	c-1.03-4.318,1.608-8.554,5.841-9.674h0.078C357.08,230.919,361.398,233.558,362.436,237.798z"/>
<g>
	<path style="fill:#3A3847;" d="M347.194,220.593c-5.513,0-10.276-3.783-11.596-9.198c-1.546-6.446,2.429-12.951,8.87-14.505
		c6.341-1.526,12.861,2.526,14.415,8.852c1.554,6.461-2.421,12.966-8.862,14.516C349.092,220.479,348.138,220.593,347.194,220.593z
		 M347.264,204.55c-0.313,0-0.616,0.039-0.921,0.113c-2.155,0.52-3.49,2.698-2.968,4.857c0.516,2.12,2.663,3.506,4.771,2.959
		c2.156-0.516,3.491-2.694,2.968-4.853C350.677,205.854,349.06,204.55,347.264,204.55z"/>
	<path style="fill:#3A3847;" d="M316.117,228.03c-5.537,0-10.315-3.787-11.619-9.21c-1.546-6.442,2.428-12.943,8.862-14.497
		c6.708-1.507,12.884,2.596,14.423,8.851c1.537,6.441-2.288,12.798-8.699,14.496c-0.164,0.043-0.336,0.078-0.5,0.098
		C317.772,227.94,316.944,228.03,316.117,228.03z M316.062,212.011c-0.297,0-0.594,0.035-0.883,0.102
		c-2.101,0.504-3.428,2.683-2.904,4.842c0.508,2.116,2.686,3.494,4.755,2.967c0.078-0.02,0.164-0.035,0.242-0.051
		c2.046-0.664,3.24-2.733,2.741-4.81C319.584,213.307,317.913,212.011,316.062,212.011z"/>
</g>
<path style="fill:#FFCE54;" d="M331.336,245.232c1.038,4.318-1.602,8.636-5.919,9.675c-4.318,1.042-8.559-1.597-9.597-5.915
	c-1.039-4.318,1.601-8.636,5.919-9.674C326.056,238.356,330.289,240.996,331.336,245.232z"/>
<g>
	<path style="fill:#ED5565;" d="M355.003,206.681c1.038,4.318-1.601,8.636-5.911,9.675c-4.248,1.039-8.558-1.601-9.604-5.919
		c-1.03-4.318,1.608-8.554,5.841-9.675h0.078C349.646,199.803,353.965,202.442,355.003,206.681z"/>
	<path style="fill:#ED5565;" d="M323.902,214.115c1.038,4.318-1.602,8.636-5.919,9.675c-4.318,1.042-8.559-1.597-9.597-5.915
		c-1.039-4.318,1.601-8.636,5.918-9.675C318.623,207.24,322.855,209.879,323.902,214.115z"/>
</g>
<g>
	<path style="fill:#AAB2BD;" d="M325.417,254.907c4.317-1.039,6.957-5.357,5.919-9.675c-1.047-4.236-5.279-6.875-9.597-5.915
		l31.022-7.438c-4.232,1.12-6.871,5.356-5.841,9.674c1.047,4.318,5.356,6.958,9.604,5.919L325.417,254.907z"/>
	<path style="fill:#AAB2BD;" d="M339.487,210.453c1.047,4.314,5.278,6.954,9.597,5.915l-31.023,7.438
		c4.232-1.121,6.872-5.356,5.842-9.675c-1.047-4.24-5.357-6.879-9.605-5.919l31.109-7.438
		C341.088,201.817,338.449,206.135,339.487,210.453z"/>
	<path style="fill:#AAB2BD;" d="M223.47,203.894c13.274,0,23.987,10.713,23.987,23.987c0,13.192-10.713,23.987-23.987,23.987
		s-23.987-10.795-23.987-23.987C199.482,214.607,210.195,203.894,223.47,203.894z"/>
</g>
<g style="opacity:0.5;">
	<path style="fill:#FFFFFF;" d="M207.478,227.882c0-11.904,8.636-21.68,19.99-23.585c-1.312-0.219-2.624-0.402-3.998-0.402
		c-13.274,0-23.987,10.713-23.987,23.987c0,13.192,10.713,23.987,23.987,23.987c1.374,0,2.686-0.184,3.998-0.406
		C216.114,249.546,207.478,239.711,207.478,227.882z"/>
</g>
<g style="opacity:0.2;">
	<path d="M239.461,227.882c0-11.904-8.636-21.68-19.99-23.585c1.312-0.219,2.624-0.402,3.998-0.402
		c13.274,0,23.987,10.713,23.987,23.987c0,13.192-10.713,23.987-23.987,23.987c-1.374,0-2.686-0.184-3.998-0.406
		C230.825,249.546,239.461,239.711,239.461,227.882z"/>
</g>
<path style="fill:#656D78;" d="M318.06,223.805l31.023-7.438c4.318-1.039,6.957-5.356,5.919-9.675
	c-1.038-4.236-5.278-6.957-9.597-5.919l-31.109,7.438c-4.31,1.039-6.949,5.357-5.91,9.675c1.038,4.318,5.356,6.958,9.597,5.919
	H318.06z M352.762,231.88l-31.022,7.438c-4.318,1.038-6.958,5.356-5.919,9.674c1.038,4.318,5.278,6.958,9.597,5.915l31.108-7.434
	c4.311-1.039,6.949-5.357,5.911-9.675c-1.038-4.24-5.356-6.879-9.597-5.918L352.762,231.88L352.762,231.88z M223.47,251.869
	c13.274,0,23.987-10.795,23.987-23.987c0-13.274-10.713-23.987-23.987-23.987s-23.987,10.713-23.987,23.987
	C199.482,241.074,210.195,251.869,223.47,251.869z M296.228,267.861h-33.576c-10.073,9.838-23.909,15.991-39.183,15.991
	c-30.945,0-55.971-25.108-55.971-55.971c0-30.945,25.026-55.971,55.971-55.971h51.973h59.969c30.945,0,55.972,25.025,55.972,55.971
	c0,30.862-25.026,55.971-55.972,55.971C320.138,283.852,306.302,277.699,296.228,267.861z"/>
<g style="opacity:0.3;">
	<path style="fill:#FFFFFF;" d="M175.494,227.882c0-30.945,25.026-55.971,55.971-55.971h-7.996
		c-30.945,0-55.971,25.025-55.971,55.971c0,30.862,25.026,55.971,55.971,55.971c1.358,0,2.686-0.109,4.014-0.203
		C198.404,281.603,175.494,257.405,175.494,227.882z"/>
</g>
<g style="opacity:0.2;">
	<path d="M383.387,227.882c0-30.945-25.026-55.971-55.971-55.971h7.995c30.945,0,55.972,25.025,55.972,55.971
		c0,30.862-25.026,55.971-55.972,55.971c-1.358,0-2.686-0.109-4.013-0.203C360.476,281.603,383.387,257.405,383.387,227.882z"/>
</g>
<path style="fill:#FFCE54;" d="M208.063,67.957c0,17.659-14.313,31.976-31.976,31.976s-31.976-14.317-31.976-31.976
	s14.313-31.976,31.976-31.976C193.751,35.981,208.063,50.298,208.063,67.957z"/>
<g style="opacity:0.5;">
	<path style="fill:#FFFFFF;" d="M152.108,67.957c0-16.288,12.22-29.586,27.978-31.573c-1.327-0.168-2.631-0.402-3.998-0.402
		c-17.663,0-31.976,14.317-31.976,31.976s14.313,31.976,31.976,31.976c1.367,0,2.671-0.234,3.998-0.402
		C164.328,97.543,152.108,84.245,152.108,67.957z"/>
</g>
<g style="opacity:0.2;">
	<path d="M200.068,67.957c0,16.288-12.22,29.586-27.978,31.573c1.328,0.168,2.632,0.402,3.998,0.402
		c17.663,0,31.976-14.317,31.976-31.976S193.751,35.98,176.088,35.98c-1.366,0-2.67,0.234-3.998,0.402
		C187.847,38.371,200.068,51.669,200.068,67.957z"/>
</g>
<polygon style="fill:#A0D468;" points="415.783,67.957 410.474,62.655 413.347,55.729 406.414,52.855 406.43,45.344 398.918,45.344 
	396.044,38.41 389.11,41.283 383.801,35.973 378.49,41.275 371.556,38.41 368.683,45.344 361.187,45.344 361.187,52.84 
	354.253,55.713 357.127,62.647 351.817,67.957 357.127,73.251 354.237,80.185 361.187,83.058 361.172,90.57 368.683,90.562 
	371.556,97.504 378.49,94.631 383.801,99.94 389.11,94.631 396.028,97.504 398.902,90.57 406.414,90.57 406.414,83.066 
	413.347,80.2 410.474,73.266 "/>
<g style="opacity:0.5;">
	<polygon style="fill:#FFFFFF;" points="376.68,90.562 369.168,90.57 369.183,83.058 362.233,80.185 365.123,73.251 359.812,67.957 
		365.123,62.647 362.249,55.713 369.183,52.84 369.183,45.344 376.68,45.344 378.381,41.232 371.556,38.41 368.683,45.344 
		361.187,45.344 361.187,52.84 354.253,55.713 357.127,62.647 351.817,67.957 357.127,73.251 354.237,80.185 361.187,83.058 
		361.172,90.57 368.683,90.562 371.556,97.504 378.381,94.678 	"/>
</g>
<g style="opacity:0.2;">
	<polygon points="390.922,45.351 398.433,45.344 398.418,52.855 405.367,55.729 402.478,62.663 407.788,67.957 402.478,73.266 
		405.351,80.2 398.418,83.074 398.418,90.57 390.922,90.57 389.22,94.681 396.044,97.504 398.918,90.57 406.414,90.57 
		406.414,83.074 413.347,80.2 410.474,73.266 415.783,67.957 410.474,62.663 413.363,55.729 406.414,52.855 406.43,45.344 
		398.918,45.351 396.044,38.41 389.22,41.236 	"/>
</g>
<g>
	<rect x="175.907" y="315.837" style="fill:#FFCE54;" width="207.89" height="15.992"/>
	<rect x="231.877" y="347.817" style="fill:#FFCE54;" width="95.95" height="15.991"/>
</g>
<polygon style="fill:#656D78;" points="87.954,475.753 63.967,507.736 63.967,35.981 87.954,3.998 "/>
<g style="opacity:0.2;">
	<polygon points="87.954,475.753 63.967,507.736 63.967,35.981 87.954,3.998 	"/>
</g>
<rect x="87.957" y="3.998" style="fill:#656D78;" width="23.987" height="471.75"/>
<g style="opacity:0.2;">
	<rect x="111.937" y="3.998" width="8.676" height="471.75"/>
</g>
<g style="opacity:0.2;">
	<rect x="440.447" y="3.998" width="7.995" height="471.75"/>
</g>
<g style="opacity:0.5;">
	<rect x="175.907" y="315.837" style="fill:#FFFFFF;" width="207.89" height="7.996"/>
</g>
<g style="opacity:0.5;">
	<rect x="231.877" y="347.817" style="fill:#FFFFFF;" width="95.95" height="7.996"/>
</g>
<path style="fill:#A0D468;" d="M335.825,431.775c0,6.622-5.372,11.994-11.993,11.994c-6.622,0-11.994-5.372-11.994-11.994
	c0-6.621,5.372-11.993,11.994-11.993C330.453,419.782,335.825,425.154,335.825,431.775z"/>
<g style="opacity:0.5;">
	<path style="fill:#FFFFFF;" d="M319.834,431.775c0-5.216,3.35-9.604,7.996-11.26c-1.258-0.445-2.585-0.733-3.998-0.733
		c-6.622,0-11.994,5.372-11.994,11.993c0,6.622,5.372,11.994,11.994,11.994c1.413,0,2.74-0.289,3.998-0.734
		C323.183,441.38,319.834,436.992,319.834,431.775z"/>
</g>
<path style="fill:#A0D468;" d="M375.805,431.775c0,6.622-5.372,11.994-11.994,11.994c-6.621,0-11.993-5.372-11.993-11.994
	c0-6.621,5.372-11.993,11.993-11.993C370.432,419.782,375.805,425.154,375.805,431.775z"/>
<g style="opacity:0.5;">
	<path style="fill:#FFFFFF;" d="M359.812,431.775c0-5.216,3.35-9.604,7.996-11.26c-1.257-0.445-2.584-0.733-3.998-0.733
		c-6.621,0-11.993,5.372-11.993,11.993c0,6.622,5.372,11.994,11.993,11.994c1.414,0,2.741-0.289,3.998-0.734
		C363.162,441.38,359.812,436.992,359.812,431.775z"/>
</g>
<path style="fill:#A0D468;" d="M415.783,431.775c0,6.622-5.371,11.994-11.993,11.994s-11.994-5.372-11.994-11.994
	c0-6.621,5.372-11.993,11.994-11.993S415.783,425.154,415.783,431.775z"/>
<g style="opacity:0.5;">
	<path style="fill:#FFFFFF;" d="M399.792,431.775c0-5.216,3.35-9.604,7.996-11.26c-1.257-0.445-2.585-0.733-3.998-0.733
		c-6.622,0-11.994,5.372-11.994,11.993c0,6.622,5.372,11.994,11.994,11.994c1.413,0,2.741-0.289,3.998-0.734
		C403.141,441.38,399.792,436.992,399.792,431.775z"/>
</g>
<g>
	<path style="fill:#3A3847;" d="M447.767,479.751H87.954c-2.21,0-3.998-1.788-3.998-3.998V3.998c0-2.21,1.788-3.998,3.998-3.998
		h359.813c2.209,0,3.998,1.788,3.998,3.998v471.755C451.765,477.963,449.976,479.751,447.767,479.751z M91.952,471.755h351.817
		V7.996H91.952V471.755z"/>
	<path style="fill:#3A3847;" d="M439.771,495.742H95.95c-2.21,0-3.998-1.788-3.998-3.998c0-2.209,1.788-3.998,3.998-3.998h343.821
		c2.21,0,3.998,1.789,3.998,3.998C443.769,493.954,441.981,495.742,439.771,495.742z"/>
	<path style="fill:#3A3847;" d="M431.775,511.734H63.967c-2.21,0-3.998-1.788-3.998-3.998s1.788-3.998,3.998-3.998h367.809
		c2.21,0,3.998,1.788,3.998,3.998S433.985,511.734,431.775,511.734z"/>
	<path style="fill:#3A3847;" d="M63.967,511.734c-2.21,0-3.998-1.788-3.998-3.998V35.981c0-2.21,1.788-3.998,3.998-3.998
		c2.21,0,3.998,1.788,3.998,3.998v471.755C67.965,509.946,66.177,511.734,63.967,511.734z"/>
	<path style="fill:#3A3847;" d="M63.967,511.734c-0.836,0-1.679-0.266-2.397-0.797c-1.765-1.327-2.124-3.834-0.804-5.599
		l23.988-31.983c1.335-1.772,3.85-2.116,5.599-0.805c1.765,1.328,2.124,3.834,0.804,5.6l-23.988,31.982
		C66.379,511.187,65.177,511.734,63.967,511.734z"/>
	<path style="fill:#3A3847;" d="M63.967,39.979c-0.836,0-1.679-0.262-2.397-0.801c-1.765-1.323-2.124-3.83-0.804-5.595L84.753,1.6
		c1.335-1.769,3.85-2.116,5.599-0.8c1.765,1.323,2.124,3.83,0.804,5.595L67.168,38.379C66.379,39.429,65.177,39.979,63.967,39.979z"
		/>
	<path style="fill:#3A3847;" d="M111.941,471.755c-2.209,0-3.998-1.788-3.998-3.998V11.994c0-2.21,1.788-3.998,3.998-3.998
		s3.998,1.788,3.998,3.998v455.763C115.939,469.967,114.151,471.755,111.941,471.755z"/>
	<path style="fill:#3A3847;" d="M383.801,103.946c-1.023,0-2.046-0.391-2.827-1.171l-3.42-3.42l-4.467,1.851
		c-0.983,0.406-2.077,0.406-3.061,0c-0.976-0.406-1.757-1.183-2.163-2.163l-1.851-4.47l-4.833,0.004c-0.008,0-0.008,0-0.008,0
		c-1.063,0-2.077-0.422-2.827-1.171c-0.749-0.753-1.171-1.772-1.171-2.834l0.008-4.833l-4.475-1.851
		c-0.976-0.406-1.757-1.183-2.163-2.167c-0.405-0.98-0.405-2.085,0-3.065l1.858-4.458l-3.412-3.401
		c-0.75-0.75-1.171-1.765-1.171-2.827s0.421-2.081,1.171-2.831l3.42-3.42l-1.851-4.466c-0.843-2.038,0.125-4.377,2.163-5.224
		l4.467-1.851v-4.826c0-2.21,1.788-3.998,3.998-3.998h4.825l1.851-4.466c0.844-2.038,3.193-3.014,5.224-2.163l4.467,1.847l3.42-3.42
		c1.562-1.554,4.092-1.558,5.653,0.004l3.42,3.42l4.467-1.851c2.015-0.832,4.373,0.121,5.224,2.163l1.851,4.466h4.842
		c1.062,0,2.076,0.422,2.826,1.175c0.75,0.75,1.172,1.769,1.172,2.831l-0.008,4.833l4.458,1.851
		c0.976,0.406,1.757,1.183,2.163,2.163s0.406,2.081,0,3.062l-1.851,4.458l3.42,3.409c0.75,0.75,1.171,1.769,1.171,2.831
		c0,1.058-0.421,2.077-1.171,2.827l-3.42,3.42l1.851,4.466c0.406,0.98,0.406,2.081,0,3.062c-0.406,0.979-1.188,1.761-2.163,2.163
		l-4.466,1.847v4.83c0,2.21-1.789,3.998-3.998,3.998h-4.842l-1.851,4.466c-0.406,0.98-1.187,1.757-2.163,2.163
		c-0.983,0.414-2.092,0.406-3.061,0l-4.451-1.851l-3.42,3.42C385.846,103.555,384.823,103.946,383.801,103.946z M378.49,90.64
		c1.039,0,2.062,0.406,2.827,1.171l2.483,2.483l2.482-2.483c1.141-1.14,2.874-1.476,4.357-0.866l3.225,1.339l1.344-3.236
		c0.616-1.496,2.076-2.468,3.693-2.468h3.514v-3.506c0-1.616,0.976-3.077,2.467-3.693l3.241-1.339l-1.343-3.237
		c-0.617-1.495-0.273-3.213,0.866-4.356l2.483-2.479l-2.483-2.476c-1.14-1.144-1.483-2.865-0.866-4.361l1.343-3.233l-3.241-1.343
		c-1.499-0.621-2.467-2.081-2.467-3.701l0.008-3.506h-3.506c-1.617,0-3.077-0.972-3.693-2.468l-1.344-3.24l-3.24,1.343
		c-1.476,0.633-3.209,0.285-4.357-0.866l-2.482-2.483l-2.483,2.479c-1.147,1.144-2.843,1.487-4.357,0.862l-3.24-1.339l-1.343,3.244
		c-0.617,1.496-2.077,2.468-3.693,2.468h-3.498v3.498c0,1.616-0.977,3.073-2.468,3.693l-3.241,1.343l1.344,3.241
		c0.617,1.495,0.273,3.213-0.867,4.356l-2.475,2.479l2.475,2.468c1.148,1.144,1.492,2.869,0.867,4.368l-1.352,3.233l3.249,1.343
		c1.491,0.617,2.468,2.081,2.468,3.701l-0.008,3.502l3.498-0.004c0.008,0,0.008,0,0.008,0c1.616,0,3.076,0.976,3.693,2.468
		l1.343,3.248l3.24-1.343C377.452,90.738,377.975,90.64,378.49,90.64z"/>
	<path style="fill:#3A3847;" d="M395.794,71.963h-23.987c-2.21,0-3.998-1.788-3.998-3.998s1.788-3.998,3.998-3.998h23.987
		c2.21,0,3.998,1.788,3.998,3.998S398.004,71.963,395.794,71.963z"/>
	<path style="fill:#3A3847;" d="M176.096,104.149c-19.841,0-35.981-16.141-35.981-35.981c0-19.841,16.141-35.981,35.981-35.981
		c19.833,0,35.966,16.14,35.966,35.981C212.061,88.009,195.929,104.149,176.096,104.149z M176.096,40.182
		c-15.429,0-27.985,12.556-27.985,27.985s12.556,27.985,27.985,27.985c15.422,0,27.97-12.556,27.97-27.985
		S191.517,40.182,176.096,40.182z"/>
	<path style="fill:#3A3847;" d="M187.902,71.963h-23.987c-2.21,0-3.998-1.788-3.998-3.998s1.788-3.998,3.998-3.998h23.987
		c2.21,0,3.998,1.788,3.998,3.998S190.112,71.963,187.902,71.963z"/>
	<path style="fill:#3A3847;" d="M335.825,175.909H223.884c-2.21,0-3.998-1.788-3.998-3.998s1.788-3.998,3.998-3.998h111.941
		c2.21,0,3.998,1.788,3.998,3.998C339.823,174.12,338.035,175.909,335.825,175.909z"/>
	<path style="fill:#3A3847;" d="M296.642,271.859H263.05c-2.21,0-3.998-1.789-3.998-3.998c0-2.21,1.788-3.998,3.998-3.998h33.592
		c2.21,0,3.998,1.788,3.998,3.998C300.64,270.07,298.852,271.859,296.642,271.859z"/>
	<path style="fill:#3A3847;" d="M223.884,287.85c-33.069,0-59.969-26.9-59.969-59.969s26.899-59.969,59.969-59.969
		c2.209,0,3.998,1.788,3.998,3.998c0,2.209-1.788,3.998-3.998,3.998c-28.657,0-51.973,23.316-51.973,51.973
		s23.316,51.973,51.973,51.973c13.688,0,26.603-5.278,36.371-14.852c1.577-1.546,4.107-1.507,5.653,0.063
		c1.547,1.577,1.516,4.107-0.063,5.653C254.578,281.76,239.68,287.85,223.884,287.85z"/>
	<path style="fill:#3A3847;" d="M335.825,287.85c-15.788,0-30.694-6.083-41.978-17.132c-1.578-1.546-1.609-4.076-0.063-5.653
		c1.538-1.573,4.083-1.604,5.652-0.063c9.784,9.573,22.707,14.852,36.388,14.852c28.657,0,51.974-23.315,51.974-51.973
		s-23.316-51.973-51.974-51.973c-2.21,0-3.998-1.788-3.998-3.998s1.788-3.998,3.998-3.998c33.069,0,59.969,26.9,59.969,59.969
		C395.794,260.95,368.894,287.85,335.825,287.85z"/>
	<path style="fill:#3A3847;" d="M223.884,255.867c-15.43,0-27.985-12.556-27.985-27.985s12.556-27.985,27.985-27.985
		s27.985,12.556,27.985,27.985S239.313,255.867,223.884,255.867z M223.884,207.892c-11.026,0-19.99,8.968-19.99,19.99
		s8.964,19.989,19.99,19.989c11.025,0,19.989-8.968,19.989-19.989S234.909,207.892,223.884,207.892z"/>
	<path style="fill:#3A3847;" d="M223.884,239.875c-2.21,0-3.998-1.788-3.998-3.998v-15.992c0-2.21,1.788-3.998,3.998-3.998
		c2.209,0,3.998,1.788,3.998,3.998v15.992C227.881,238.087,226.093,239.875,223.884,239.875z"/>
	<path style="fill:#3A3847;" d="M231.879,231.88h-16.398c-2.209,0-3.998-1.788-3.998-3.998s1.789-3.998,3.998-3.998h16.398
		c2.209,0,3.998,1.788,3.998,3.998S234.089,231.88,231.879,231.88z"/>
	<path style="fill:#3A3847;" d="M316.539,228.042c-5.561,0-10.354-3.787-11.65-9.206c-0.75-3.12-0.234-6.337,1.437-9.066
		c1.679-2.729,4.317-4.646,7.441-5.392c6.458-1.53,12.931,2.554,14.453,8.875c0.75,3.119,0.234,6.34-1.444,9.073
		c-1.679,2.729-4.318,4.642-7.434,5.384C318.428,227.929,317.483,228.042,316.539,228.042z M316.555,212.046
		c-0.313,0-0.625,0.035-0.93,0.109c-1.047,0.25-1.929,0.887-2.483,1.796c-0.554,0.906-0.726,1.979-0.476,3.019
		c0.507,2.12,2.678,3.479,4.817,2.963c1.038-0.25,1.921-0.886,2.483-1.796c0.554-0.906,0.726-1.979,0.476-3.018
		C320.013,213.307,318.412,212.046,316.555,212.046z"/>
	<path style="fill:#3A3847;" d="M347.647,220.608c-5.583,0-10.37-3.791-11.65-9.222c-0.749-3.101-0.234-6.321,1.437-9.05
		c1.68-2.729,4.318-4.646,7.441-5.392c6.341-1.519,12.932,2.542,14.454,8.875c1.522,6.438-2.46,12.916-8.879,14.458
		C349.529,220.495,348.584,220.608,347.647,220.608z M347.671,204.608c-0.313,0-0.625,0.039-0.938,0.113
		c-1.046,0.25-1.929,0.887-2.482,1.796c-0.555,0.906-0.727,1.979-0.477,3.018c0.5,2.124,2.655,3.479,4.817,2.963
		c2.14-0.512,3.467-2.678,2.96-4.826C351.114,205.873,349.521,204.608,347.671,204.608z"/>
	<path style="fill:#3A3847;" d="M323.972,259.15c-5.561,0-10.354-3.787-11.65-9.206c-1.539-6.426,2.436-12.911,8.878-14.457
		c6.302-1.48,12.938,2.538,14.453,8.874c1.538,6.427-2.437,12.911-8.878,14.457C325.861,259.037,324.917,259.15,323.972,259.15z
		 M324.004,243.151c-0.313,0-0.633,0.039-0.945,0.113c-2.147,0.515-3.475,2.674-2.959,4.813c0.507,2.12,2.678,3.482,4.817,2.963
		c2.147-0.515,3.475-2.674,2.96-4.814C327.447,244.416,325.846,243.151,324.004,243.151z"/>
	<path style="fill:#3A3847;" d="M355.096,251.713c-5.567,0-10.362-3.783-11.666-9.202c-0.749-3.127-0.234-6.352,1.444-9.081
		c1.68-2.726,4.318-4.639,7.441-5.376c6.255-1.492,12.932,2.534,14.446,8.874c0.749,3.116,0.233,6.337-1.444,9.069
		c-1.68,2.726-4.318,4.639-7.434,5.388C356.963,251.603,356.025,251.713,355.096,251.713z M355.112,235.718
		c-0.313,0-0.633,0.039-0.944,0.113c-1.047,0.25-1.93,0.882-2.483,1.788c-0.555,0.905-0.727,1.983-0.477,3.025
		c0.5,2.12,2.71,3.494,4.817,2.963c1.039-0.25,1.921-0.89,2.483-1.8c0.555-0.906,0.727-1.979,0.477-3.014
		C358.555,236.982,356.955,235.718,355.112,235.718z"/>
	<path style="fill:#3A3847;" d="M314.695,212.264c-1.812,0-3.451-1.233-3.889-3.068c-0.515-2.147,0.813-4.307,2.96-4.818
		l31.108-7.434c2.147-0.511,4.311,0.816,4.818,2.96c0.516,2.147-0.813,4.306-2.96,4.817l-31.108,7.434
		C315.312,212.229,315,212.264,314.695,212.264z"/>
	<path style="fill:#3A3847;" d="M318.412,227.819c-1.811,0-3.451-1.234-3.889-3.069c-0.515-2.147,0.813-4.306,2.96-4.818
		l31.108-7.434c2.147-0.52,4.311,0.816,4.818,2.959c0.516,2.147-0.813,4.306-2.96,4.818l-31.108,7.434
		C319.029,227.784,318.717,227.819,318.412,227.819z"/>
	<path style="fill:#3A3847;" d="M322.129,243.373c-1.811,0-3.451-1.234-3.889-3.069c-0.515-2.147,0.813-4.306,2.96-4.817
		l31.108-7.434c2.147-0.531,4.311,0.815,4.818,2.959c0.516,2.147-0.813,4.307-2.959,4.818l-31.109,7.434
		C322.746,243.339,322.433,243.373,322.129,243.373z"/>
	<path style="fill:#3A3847;" d="M325.846,258.928c-1.811,0-3.451-1.233-3.889-3.068c-0.515-2.147,0.813-4.307,2.96-4.818
		l31.108-7.434c2.147-0.511,4.311,0.816,4.818,2.959c0.516,2.147-0.813,4.306-2.959,4.817l-31.109,7.434
		C326.463,258.892,326.15,258.928,325.846,258.928z"/>
	<path style="fill:#3A3847;" d="M271.858,247.871h-7.995c-2.21,0-3.998-1.788-3.998-3.998c0-2.209,1.788-3.998,3.998-3.998h7.995
		c2.21,0,3.998,1.788,3.998,3.998C275.856,246.083,274.068,247.871,271.858,247.871z"/>
	<path style="fill:#3A3847;" d="M295.846,247.871h-7.995c-2.21,0-3.998-1.788-3.998-3.998c0-2.209,1.788-3.998,3.998-3.998h7.995
		c2.21,0,3.998,1.788,3.998,3.998S298.055,247.871,295.846,247.871z"/>
	<path style="fill:#3A3847;" d="M279.854,159.917c-2.21,0-3.998-1.788-3.998-3.998c0-11.021,8.964-19.989,19.989-19.989
		c2.21,0,3.998,1.788,3.998,3.998c0,2.209-1.788,3.998-3.998,3.998c-6.613,0-11.993,5.38-11.993,11.994
		C283.852,158.129,282.064,159.917,279.854,159.917z"/>
	<path style="fill:#3A3847;" d="M303.842,143.925c-2.21,0-3.998-1.788-3.998-3.998s1.788-3.998,3.998-3.998
		c6.614,0,11.994-5.38,11.994-11.994c0-6.613-5.38-11.994-11.994-11.994c-2.21,0-3.998-1.788-3.998-3.998s1.788-3.998,3.998-3.998
		c11.025,0,19.99,8.968,19.99,19.989S314.867,143.925,303.842,143.925z"/>
	<path style="fill:#3A3847;" d="M263.863,79.958c-2.21,0-3.998-1.788-3.998-3.998s1.788-3.998,3.998-3.998
		c6.613,0,11.993-5.38,11.993-11.994c0-2.209,1.788-3.998,3.998-3.998s3.998,1.789,3.998,3.998
		C283.852,70.99,274.888,79.958,263.863,79.958z"/>
	<path style="fill:#3A3847;" d="M303.842,143.925h-7.996c-2.209,0-3.998-1.788-3.998-3.998s1.789-3.998,3.998-3.998h7.996
		c2.21,0,3.998,1.788,3.998,3.998S306.052,143.925,303.842,143.925z"/>
	<path style="fill:#3A3847;" d="M255.055,111.942c-11.025,0-19.989-8.968-19.989-19.99s8.964-19.989,19.989-19.989
		c2.21,0,3.998,1.788,3.998,3.998c0,2.209-1.788,3.998-3.998,3.998c-6.613,0-11.994,5.38-11.994,11.994
		c0,6.614,5.38,11.994,11.994,11.994c2.21,0,3.998,1.788,3.998,3.998C259.053,110.154,257.264,111.942,255.055,111.942z"/>
	<path style="fill:#3A3847;" d="M263.051,79.958h-7.996c-2.21,0-3.998-1.788-3.998-3.998s1.788-3.998,3.998-3.998h7.996
		c2.21,0,3.998,1.788,3.998,3.998C267.049,78.17,265.261,79.958,263.051,79.958z"/>
	<path style="fill:#3A3847;" d="M303.826,111.942h-48.779c-2.21,0-3.998-1.788-3.998-3.998s1.788-3.998,3.998-3.998h48.779
		c2.21,0,3.998,1.788,3.998,3.998C307.824,110.154,306.036,111.942,303.826,111.942z"/>
	<path style="fill:#3A3847;" d="M279.854,63.967c-2.21,0-3.998-1.788-3.998-3.998V35.981c0-2.21,1.788-3.998,3.998-3.998
		s3.998,1.788,3.998,3.998v23.987C283.852,62.179,282.064,63.967,279.854,63.967z"/>
	<path style="fill:#3A3847;" d="M279.854,167.913c-2.21,0-3.998-1.788-3.998-3.998v-7.996c0-2.21,1.788-3.998,3.998-3.998
		s3.998,1.788,3.998,3.998v7.996C283.852,166.125,282.064,167.913,279.854,167.913z"/>
	<path style="fill:#3A3847;" d="M383.801,335.826H175.908c-2.209,0-3.998-1.789-3.998-3.998v-15.992c0-2.21,1.788-3.998,3.998-3.998
		h207.893c2.209,0,3.998,1.788,3.998,3.998v15.992C387.799,334.037,386.01,335.826,383.801,335.826z M179.906,327.83h199.896v-7.996
		H179.906V327.83z"/>
	<path style="fill:#3A3847;" d="M327.83,367.808h-95.951c-2.209,0-3.998-1.788-3.998-3.998v-15.991c0-2.21,1.789-3.998,3.998-3.998
		h95.951c2.209,0,3.997,1.788,3.997,3.998v15.991C331.827,366.02,330.039,367.808,327.83,367.808z M235.877,359.813h87.955v-7.996
		h-87.955V359.813z"/>
	<path style="fill:#3A3847;" d="M223.884,423.779h-86.705c-2.21,0-3.998-1.787-3.998-3.997s1.788-3.998,3.998-3.998h86.705
		c2.209,0,3.998,1.788,3.998,3.998S226.093,423.779,223.884,423.779z"/>
	<path style="fill:#3A3847;" d="M175.908,439.771h-38.729c-2.21,0-3.998-1.788-3.998-3.998s1.788-3.998,3.998-3.998h38.729
		c2.21,0,3.998,1.788,3.998,3.998S178.118,439.771,175.908,439.771z"/>
	<path style="fill:#3A3847;" d="M323.832,447.767c-8.816,0-15.992-7.168-15.992-15.992c0-8.823,7.176-15.991,15.992-15.991
		c8.815,0,15.991,7.168,15.991,15.991C339.823,440.599,332.647,447.767,323.832,447.767z M323.832,423.779
		c-4.412,0-7.996,3.593-7.996,7.996c0,4.404,3.584,7.996,7.996,7.996c4.411,0,7.995-3.592,7.995-7.996
		C331.827,427.372,328.243,423.779,323.832,423.779z"/>
	<path style="fill:#3A3847;" d="M363.81,447.767c-8.815,0-15.991-7.168-15.991-15.992c0-8.823,7.176-15.991,15.991-15.991
		c8.816,0,15.992,7.168,15.992,15.991C379.803,440.599,372.627,447.767,363.81,447.767z M363.81,423.779
		c-4.412,0-7.996,3.593-7.996,7.996c0,4.404,3.584,7.996,7.996,7.996s7.996-3.592,7.996-7.996
		C371.806,427.372,368.222,423.779,363.81,423.779z"/>
	<path style="fill:#3A3847;" d="M403.79,447.767c-8.815,0-15.991-7.168-15.991-15.992c0-8.823,7.176-15.991,15.991-15.991
		s15.991,7.168,15.991,15.991C419.781,440.599,412.605,447.767,403.79,447.767z M403.79,423.779c-4.412,0-7.996,3.593-7.996,7.996
		c0,4.404,3.584,7.996,7.996,7.996c4.411,0,7.996-3.592,7.996-7.996C411.786,427.372,408.201,423.779,403.79,423.779z"/>
</g>
<g>
</g>
<g>
</g>
<g>
</g>
<g>
</g>
<g>
</g>
<g>
</g>
<g>
</g>
<g>
</g>
<g>
</g>
<g>
</g>
<g>
</g>
<g>
</g>
<g>
</g>
<g>
</g>
<g>
</g>
</svg>
