<svg height="512" viewBox="0 0 256 256" width="512" xmlns="http://www.w3.org/2000/svg"><path d="m27.555 12.387h200.889v239.613h-200.889z" fill="#526faa"/><path d="m39.564 41.026h119.391v34.111h-119.391z" fill="#ff4397"/><path d="m47.164 104.643-7.6-10.383 12.792 1.391 5.191-11.774 5.191 11.774 12.793-1.391-7.601 10.383 7.601 10.382-12.793-1.39-5.191 11.773-5.191-11.773-12.792 1.39z" fill="#fcc24c"/><path d="m27.555 12.387h9.084v239.613h-9.084z" fill="#708dc8"/><path d="m197.947 12.387a21.708 21.708 0 0 1 4.653 13.434v206.926a19.252 19.252 0 0 1 -19.256 19.253h45.1v-239.613z" fill="#f4efed"/><path d="m219.36 12.387h9.084v239.613h-9.084z" fill="#d6d1cf"/><path d="m98.881 194.653v-31.563h33.637v31.563h23.525a21.4 21.4 0 0 1 21.275 21.44v35.907h-123.389v-36.082a21.35 21.35 0 0 1 21.385-21.275z" fill="#f4efed"/><path d="m177.318 254h-123.389a2 2 0 0 1 -2-2v-36.082a23.35 23.35 0 0 1 23.357-23.275h.031l21.563.009v-29.562a2 2 0 0 1 2-2h33.638a2 2 0 0 1 2 2v29.563h21.525a23.079 23.079 0 0 1 16.476 6.906 23.32 23.32 0 0 1 6.8 16.537v35.904a2 2 0 0 1 -2.001 2zm-121.389-4h119.389v-33.907a19.342 19.342 0 0 0 -5.641-13.719 19.1 19.1 0 0 0 -13.637-5.721h-23.522a2 2 0 0 1 -2-2v-29.563h-29.638v29.563a2 2 0 0 1 -2 2l-23.566-.01h-.025a19.35 19.35 0 0 0 -19.36 19.277z" fill="#690589"/><path d="m115.7 216.11a16.818 16.818 0 0 1 -16.818-16.818v-36.2h33.637v36.2a16.819 16.819 0 0 1 -16.819 16.818z" fill="#ff9f70"/><path d="m115.7 218.11a18.84 18.84 0 0 1 -18.82-18.818v-36.2a2 2 0 0 1 2-2h33.638a2 2 0 0 1 2 2v36.2a18.84 18.84 0 0 1 -18.818 18.818zm-14.82-53.02v34.2a14.819 14.819 0 0 0 29.638 0v-34.2z" fill="#690589"/><path d="m115.654 190.938a33.559 33.559 0 0 1 -33.341-33.774v-23.382a33.56 33.56 0 0 1 33.341-33.775 33.56 33.56 0 0 1 33.346 33.775v23.382a33.56 33.56 0 0 1 -33.346 33.774z" fill="#ff9f70"/><g fill="#690589"><path d="m115.654 192.938a35.6 35.6 0 0 1 -35.341-35.774v-23.382a35.344 35.344 0 1 1 70.683 0v23.382a35.6 35.6 0 0 1 -35.342 35.774zm0-90.931a31.6 31.6 0 0 0 -31.341 31.775v23.382a31.344 31.344 0 1 0 62.683 0v-23.382a31.6 31.6 0 0 0 -31.342-31.775z"/><path d="m72.428 254a2 2 0 0 1 -2-2v-15.6a2 2 0 0 1 4 0v15.6a2 2 0 0 1 -2 2z"/><path d="m158.577 254a2 2 0 0 1 -2-2v-15.6a2 2 0 0 1 4 0v15.6a2 2 0 0 1 -2 2z"/><path d="m228.445 254h-200.89a2 2 0 0 1 -2-2v-239.613a2 2 0 0 1 2-2h200.89a2 2 0 0 1 2 2v239.613a2 2 0 0 1 -2 2zm-198.89-4h196.89v-235.613h-196.89z"/><path d="m183.344 254a2 2 0 0 1 0-4 17.271 17.271 0 0 0 17.256-17.252 2 2 0 0 1 4 0 21.277 21.277 0 0 1 -21.256 21.252z"/><path d="m158.954 77.138h-119.391a2 2 0 0 1 -2-2v-34.112a2 2 0 0 1 2-2h119.391a2 2 0 0 1 2 2v34.112a2 2 0 0 1 -2 2zm-117.391-4h115.391v-30.112h-115.391z"/><path d="m57.547 127.408a2 2 0 0 1 -1.83-1.193l-4.6-10.434-11.337 1.233a2 2 0 0 1 -1.83-3.17l6.735-9.2-6.735-9.2a2 2 0 0 1 1.83-3.17l11.336 1.226 4.6-10.434a2 2 0 0 1 3.66 0l4.6 10.434 11.337-1.233a2 2 0 0 1 1.83 3.17l-6.736 9.2 6.736 9.2a2 2 0 0 1 -1.83 3.17l-11.337-1.233-4.6 10.434a2 2 0 0 1 -1.829 1.2zm-5.191-15.774a2 2 0 0 1 1.829 1.193l3.362 7.624 3.361-7.624a2 2 0 0 1 2.047-1.181l8.282.9-4.921-6.723a2 2 0 0 1 0-2.363l4.921-6.723-8.282.9a2 2 0 0 1 -2.047-1.181l-3.361-7.624-3.362 7.624a2 2 0 0 1 -2.046 1.181l-8.283-.9 4.922 6.723a2 2 0 0 1 0 2.363l-4.922 6.723 8.283-.9a2 2 0 0 1 .217-.012z"/><path d="m75.531 142.991h-35.968a2 2 0 0 1 0-4h35.968a2 2 0 0 1 0 4z"/><path d="m75.531 154.041h-35.968a2 2 0 1 1 0-4h35.968a2 2 0 0 1 0 4z"/><path d="m57.547 165.09h-17.984a2 2 0 0 1 0-4h17.984a2 2 0 0 1 0 4z"/></g><path d="m158.954 4v209.5h24.39a19.252 19.252 0 0 1 19.256 19.247v-206.926a21.821 21.821 0 0 0 -21.825-21.821z" fill="#fcc24c"/><path d="m202.6 234.748a2 2 0 0 1 -2-2 17.271 17.271 0 0 0 -17.256-17.248h-24.39a2 2 0 0 1 -2-2v-209.5a2 2 0 0 1 2-2h21.821a23.848 23.848 0 0 1 23.825 23.821v206.927a2 2 0 0 1 -2 2zm-41.646-23.248h22.39a21.237 21.237 0 0 1 17.256 8.85v-194.529a19.843 19.843 0 0 0 -19.825-19.821h-19.821z" fill="#690589"/><path d="m36.64 192.356a2 2 0 0 1 -2-2v-12a2 2 0 0 1 4 0v12a2 2 0 0 1 -2 2z" fill="#690589"/></svg>